<?xml version="1.0" encoding="utf-8"?>
<!-- Generator: Adobe Illustrator 16.0.0, SVG Export Plug-In . SVG Version: 6.00 Build 0)  -->
<!DOCTYPE svg PUBLIC "-//W3C//DTD SVG 1.1//EN" "http://www.w3.org/Graphics/SVG/1.1/DTD/svg11.dtd">
<svg version="1.1" id="Layer_1" xmlns="http://www.w3.org/2000/svg" xmlns:xlink="http://www.w3.org/1999/xlink" x="0px" y="0px"
	 width="250px" height="250px" viewBox="0 0 250 250" enable-background="new 0 0 250 250" xml:space="preserve">
<g>
	<g>
		<g>
			<g>
				<path fill="#BCB9B9" d="M69.715,233.596c-0.29,0-0.583,0.015-0.874,0.019c-0.14,0.021-0.283,0.046-0.423,0.066
					C68.852,233.72,69.283,233.596,69.715,233.596z"/>
				<polygon fill="#BCB9B9" points="69.716,233.596 69.715,233.596 69.719,233.596 				"/>
				<path fill="#BCB9B9" d="M237.955,196.297c-0.098,0.038-0.207,0.075-0.307,0.113l-0.027-0.113
					c-4.803,1.885-10.363,3.604-16.678,5.159c-6.273,1.544-13.197,2.317-20.77,2.326c-8.031-0.019-15.34-1.359-21.934-4.023
					c-6.643-2.685-12.295-6.807-16.961-12.366c-2.895-3.451-5.568-7.497-7.795-12.13c-1.27-2.828-2.385-5.874-3.35-9.142
					c-2.369-8.025-3.621-17.479-3.783-28.321c0.027-0.803,0.055-1.607,0.055-2.42c0-0.813-0.027-1.618-0.057-2.422
					c0.16-10.835,1.389-20.24,3.715-28.178c1.482-5.076,3.355-9.605,5.594-13.613c1.568-2.724,3.295-5.215,5.164-7.446
					c4.615-5.512,10.346-9.587,16.941-12.226c6.564-2.623,13.984-3.943,22.137-3.956c6.16,0.009,11.975,0.477,17.439,1.411
					c5.512,0.942,10.482,2.214,14.912,3.816l0.023-0.097c0.096,0.034,0.199,0.063,0.295,0.098l7.215-28.55
					c-4.807-1.979-10.523-4.085-17.166-5.594C215.975,37.119,207.85,36,198.236,36c-0.029,0-0.057,0-0.086,0
					c-0.084,0-0.162,0.362-0.244,0.362c-9.102,0-17.641,1.088-25.627,2.9c-4.916,1.096-9.613,2.611-14.039,4.37
					c-1.338,0.532-2.631,1.171-3.916,1.784c-1.748,0.793-4.076,1.666-5.738,2.553c-0.955,0.48-1.586,0.989-3.586,1.48v-0.175V38h-44
					v12.279v72.694c0,3.313,0.9,13.908,0.893,14.659c-0.155,10.912-0.7,20.422-3.082,28.489
					c-2.544,8.621-5.794,15.713-10.458,21.271c-4.665,5.56-10.14,9.682-16.783,12.366c-2.476,1.002-4.965,1.813-7.643,2.441
					c0.028,0.005,0.098,0.021,0.125,0.024c-0.03-0.004-0.037-0.008-0.068-0.013c-4.509,1.057-9.288,1.581-14.374,1.581
					c-0.806,0-1.567-0.046-2.357-0.065c-7.237,0-12.842-0.97-18.488-2.36c-6.312-1.555-11.899-3.229-16.705-5.115l-6.658,28.714
					c5.466,2.734,12.148,5.028,20.063,6.866c7.915,1.836,17.569,2.761,28.97,2.761c4.976,0,9.776-0.872,14.406-0.979
					c8.058-1.139,16.864-3.326,23.823-6.24c11.355-4.758,21.037-11.428,29.044-20.097c1.067-1.158,2.098-2.339,3.109-3.557
					c1.009,1.229,2.047,2.434,3.125,3.601c8.01,8.669,17.691,15.382,29.045,20.14c11.354,4.755,24.098,7.138,38.232,7.138
					c0.076,0,0.148-0.002,0.225-0.002c0.035,0,0.072,0.002,0.109,0.002c11.396,0,21.061-0.918,28.975-2.756
					c7.914-1.837,14.602-4.121,20.068-6.854L237.955,196.297z"/>
			</g>
			<g>
				<rect x="102" y="15" fill="#A8E637" width="43" height="18"/>
			</g>
		</g>
	</g>
	<path fill="#BCB9B9" d="M69.715,233.596c-0.29,0-0.583,0.015-0.874,0.019c-0.14,0.021-0.283,0.046-0.423,0.066
		C68.852,233.72,69.283,233.596,69.715,233.596z"/>
	<linearGradient id="SVGID_1_" gradientUnits="userSpaceOnUse" x1="239.7852" y1="90.1733" x2="101.0005" y2="90.1734">
		<stop  offset="0" style="stop-color:#CAC8C8"/>
		<stop  offset="1" style="stop-color:#BCB9B9"/>
	</linearGradient>
	<path fill="url(#SVGID_1_)" d="M150.064,104.78c1.482-5.076,3.355-9.605,5.594-13.613c1.568-2.724,3.295-5.215,5.164-7.446
		c4.615-5.512,10.346-9.587,16.941-12.226c6.564-2.623,13.984-3.943,22.137-3.956c6.16,0.009,11.975,0.477,17.439,1.411
		c5.512,0.942,10.482,2.214,14.912,3.816l0.023-0.097c0.096,0.034,0.199,0.063,0.295,0.098l7.215-28.55
		c-4.807-1.979-10.523-4.085-17.166-5.594C215.975,37.119,207.85,36,198.236,36c-0.029,0-0.057,0-0.086,0
		c-0.084,0-0.162,0.362-0.244,0.362c-9.102,0-17.641,1.088-25.627,2.9c-4.916,1.096-9.613,2.611-14.039,4.37
		c-1.338,0.532-2.631,1.171-3.916,1.784c-1.748,0.793-4.076,1.666-5.738,2.553c-0.955,0.48-1.586,0.989-3.586,1.48v-0.175V38h-44
		v12.279v72.694c0,3.313,0.9,13.908,0.893,14.659c-0.034,2.306,0.109,4.535,0.014,6.715l45.157-24.589
		C147.681,114.3,148.74,109.295,150.064,104.78z"/>
	<linearGradient id="SVGID_2_" gradientUnits="userSpaceOnUse" x1="5.4019" y1="177.1777" x2="244.5977" y2="177.1777">
		<stop  offset="0" style="stop-color:#8D8B8B"/>
		<stop  offset="0.8548" style="stop-color:#BCB9B9"/>
	</linearGradient>
	<path fill="url(#SVGID_2_)" d="M88.458,187.393c-4.664,5.56-10.193,9.682-16.836,12.366c-2.476,1.002-4.991,1.813-7.669,2.441
		c0.028,0.005,0.085,0.021,0.112,0.024c-0.03-0.004-0.043-0.008-0.075-0.013c-4.509,1.057-9.292,1.581-14.377,1.581
		c-0.806,0-1.568-0.046-2.358-0.065c-7.237,0-12.843-0.97-18.489-2.36c-6.312-1.555-11.9-3.229-16.706-5.115l-6.658,28.714
		c5.466,2.734,12.148,5.028,20.063,6.866c7.915,1.836,17.569,2.761,28.97,2.761c4.976,0,9.776-0.872,14.406-0.979
		c8.058-1.139,16.864-3.326,23.823-6.24c11.355-4.758,21.037-11.428,29.044-20.097c1.067-1.158,2.098-2.339,3.109-3.557
		c1.009,1.229,2.047,2.434,3.125,3.601c8.01,8.669,17.691,15.382,29.045,20.14c11.354,4.755,24.098,7.138,38.232,7.138
		c0.076,0,0.148-0.002,0.225-0.002c0.035,0,0.072,0.002,0.109,0.002c11.396,0,21.061-0.918,28.975-2.756
		c7.914-1.837,14.602-4.121,20.068-6.854l-6.643-28.691c-0.098,0.038-0.207,0.075-0.307,0.113l-0.027-0.113
		c-4.803,1.885-10.363,3.604-16.678,5.159c-6.273,1.544-13.197,2.317-20.77,2.326c-8.031-0.019-15.34-1.359-21.934-4.023
		c-6.643-2.685-12.295-6.807-16.961-12.366c-2.895-3.451-5.568-7.497-7.795-12.13c-1.27-2.828-2.385-5.874-3.35-9.142
		c-2.369-8.025-3.621-17.479-3.783-28.321c0.027-0.803,0.055-1.607,0.055-2.42c0-0.813-0.027-1.618-0.057-2.422
		c0.068-4.673,0.35-9.063,0.818-13.201l-45.051,24.589c-0.359,8.137-1.218,15.41-3.096,21.774
		C96.478,174.742,93.122,181.834,88.458,187.393z"/>
</g>
</svg>
