<?xml version="1.0" encoding="utf-8"?>
<!-- Generator: Adobe Illustrator 16.0.0, SVG Export Plug-In . SVG Version: 6.00 Build 0)  -->
<!DOCTYPE svg PUBLIC "-//W3C//DTD SVG 1.1//EN" "http://www.w3.org/Graphics/SVG/1.1/DTD/svg11.dtd">
<svg version="1.1" id="Layer_1" xmlns="http://www.w3.org/2000/svg" xmlns:xlink="http://www.w3.org/1999/xlink" x="0px" y="0px"
	  viewBox="0 0 512 512" enable-background="new 0 0 512 512" xml:space="preserve">
<g>
	<g>
		<g>
			<g>
				<path fill="#BCB9B9" d="M139.973,483.908c-0.608,0-1.223,0.03-1.833,0.04c-0.294,0.043-0.593,0.096-0.887,0.138
					C138.161,484.169,139.066,483.908,139.973,483.908z"/>
				<polygon fill="#BCB9B9" points="139.976,483.908 139.973,483.908 139.982,483.908 				"/>
				<path fill="#BCB9B9" d="M493.059,405.629c-0.208,0.08-0.438,0.158-0.646,0.238l-0.056-0.238
					c-10.084,3.957-21.753,7.564-35.001,10.828c-13.165,3.241-27.697,4.863-43.591,4.883c-16.854-0.04-32.195-2.854-46.029-8.444
					c-13.941-5.635-25.808-14.284-35.597-25.953c-6.079-7.244-11.691-15.733-16.361-25.458c-2.661-5.934-5.006-12.326-7.028-19.185
					c-4.974-16.842-7.602-36.683-7.941-59.438c0.057-1.685,0.114-3.372,0.114-5.078c0-1.708-0.058-3.396-0.117-5.083
					c0.338-22.74,2.913-42.478,7.794-59.136c3.116-10.654,7.043-20.159,11.739-28.57c3.294-5.716,6.92-10.945,10.84-15.627
					c9.684-11.568,21.713-20.12,35.555-25.658c13.775-5.505,29.352-8.274,46.459-8.301c12.928,0.018,25.13,1.001,36.601,2.959
					c11.568,1.979,21.998,4.648,31.294,8.01l0.05-0.204c0.201,0.071,0.418,0.134,0.616,0.205l15.146-59.917
					c-10.087-4.154-22.089-8.181-36.03-11.348C446.927,71.956,429.872,70,409.701,70c-0.061,0-0.12,0-0.183,0
					c-0.173,0-0.338,0.367-0.511,0.367c-19.103,0-37.023,2.09-53.783,5.892c-10.317,2.3-20.176,5.382-29.462,9.073
					c-2.812,1.118-5.521,2.409-8.22,3.694c-3.67,1.665-7.543,3.471-11.032,5.333C304.506,95.368,302,96.41,300,97.44v-0.368V75h-93
					v24.185v152.562c0,6.953,1.205,29.188,1.188,30.764c-0.326,22.901-1.811,42.86-6.809,59.79
					c-5.339,18.094-12.333,32.977-22.122,44.643c-9.789,11.669-21.367,20.318-35.308,25.953c-5.196,2.103-10.462,3.807-16.082,5.123
					c0.059,0.01,0.185,0.043,0.241,0.053c-0.063-0.01-0.089-0.018-0.154-0.027c-9.462,2.218-19.499,3.318-30.171,3.318
					c-1.691,0-3.291-0.098-4.949-0.138c-15.188,0-26.954-2.034-38.801-4.953c-13.247-3.264-24.974-6.778-35.06-10.735L5,465.797
					c11.471,5.739,25.495,10.553,42.105,14.41c16.612,3.854,36.874,5.794,60.8,5.794c10.443,0,20.517-1.83,30.234-2.053
					c16.911-2.39,35.393-6.98,49.996-13.098c23.831-9.984,44.149-23.983,60.957-42.177c2.239-2.431,4.401-4.908,6.524-7.464
					c2.118,2.58,4.298,5.108,6.561,7.557c16.808,18.193,37.126,32.282,60.957,42.267c23.825,9.979,50.574,14.98,80.236,14.98
					c0.16,0,0.311-0.005,0.471-0.005c0.075,0,0.152,0.005,0.23,0.005c23.92,0,44.196-1.928,60.809-5.784
					c16.609-3.854,30.646-8.648,42.119-14.385L493.059,405.629z"/>
			</g>
			<g>
				<rect x="207" y="26" fill="#A8E637" width="92" height="36"/>
			</g>
		</g>
	</g>
	<path fill="#BCB9B9" d="M139.973,483.908c-0.608,0-1.223,0.03-1.833,0.04c-0.294,0.043-0.593,0.096-0.887,0.138
		C138.161,484.169,139.066,483.908,139.973,483.908z"/>
	<linearGradient id="SVGID_1_" gradientUnits="userSpaceOnUse" x1="496.8984" y1="183.3008" x2="207.0005" y2="183.3008">
		<stop  offset="0" style="stop-color:#CAC8C8"/>
		<stop  offset="1" style="stop-color:#BCB9B9"/>
	</linearGradient>
	<path fill="url(#SVGID_1_)" d="M308.6,213.565c3.116-10.654,7.043-20.159,11.739-28.57c3.294-5.716,6.92-10.945,10.84-15.627
		c9.684-11.568,21.713-20.12,35.555-25.658c13.775-5.505,29.352-8.274,46.459-8.301c12.928,0.018,25.13,1.001,36.601,2.959
		c11.568,1.979,21.998,4.648,31.294,8.01l0.05-0.204c0.201,0.071,0.418,0.134,0.616,0.205l15.146-59.917
		c-10.087-4.154-22.089-8.181-36.03-11.348C446.927,71.956,429.872,70,409.701,70c-0.061,0-0.12,0-0.183,0
		c-0.173,0-0.338,0.367-0.511,0.367c-19.103,0-37.023,2.09-53.783,5.892c-10.317,2.3-20.176,5.382-29.462,9.073
		c-2.812,1.118-5.521,2.409-8.22,3.694c-3.67,1.665-7.543,3.471-11.032,5.333C304.506,95.368,302,96.41,300,97.44v-0.368V75h-93
		v24.185v152.562c0,6.953,1.205,29.188,1.188,30.764c-0.07,4.839-0.111,9.518-0.312,14.093l94.596-51.605
		C303.769,233.545,305.824,223.04,308.6,213.565z"/>
	<linearGradient id="SVGID_2_" gradientUnits="userSpaceOnUse" x1="5" y1="365.5059" x2="507" y2="365.5059">
		<stop  offset="0" style="stop-color:#8D8B8B"/>
		<stop  offset="0.8548" style="stop-color:#BCB9B9"/>
	</linearGradient>
	<path fill="url(#SVGID_2_)" d="M179.308,386.942c-9.789,11.669-21.393,20.318-35.334,25.953
		c-5.196,2.103-10.474,3.807-16.094,5.123c0.059,0.01,0.178,0.043,0.234,0.053c-0.063-0.01-0.091-0.018-0.156-0.027
		c-9.462,2.218-19.502,3.318-30.174,3.318c-1.69,0-3.29-0.098-4.948-0.138c-15.188,0-26.954-2.034-38.802-4.953
		c-13.247-3.264-24.974-6.778-35.06-10.735L5,465.797c11.471,5.739,25.495,10.553,42.105,14.41
		c16.612,3.854,36.874,5.794,60.8,5.794c10.443,0,20.517-1.83,30.234-2.053c16.911-2.39,35.393-6.98,49.996-13.098
		c23.831-9.984,44.149-23.983,60.957-42.177c2.239-2.431,4.401-4.908,6.524-7.464c2.118,2.58,4.298,5.108,6.561,7.557
		c16.808,18.193,37.126,32.282,60.957,42.267c23.825,9.979,50.574,14.98,80.236,14.98c0.16,0,0.311-0.005,0.471-0.005
		c0.075,0,0.152,0.005,0.23,0.005c23.92,0,44.196-1.928,60.809-5.784c16.609-3.854,30.646-8.648,42.119-14.385l-13.941-60.216
		c-0.208,0.08-0.438,0.158-0.646,0.238l-0.056-0.238c-10.084,3.957-21.753,7.564-35.001,10.828
		c-13.165,3.241-27.697,4.863-43.591,4.883c-16.854-0.04-32.195-2.854-46.029-8.444c-13.941-5.635-25.808-14.284-35.597-25.953
		c-6.079-7.244-11.691-15.733-16.361-25.458c-2.661-5.934-5.006-12.326-7.028-19.185c-4.974-16.842-7.602-36.683-7.941-59.438
		c0.057-1.685,0.114-3.372,0.114-5.078c0-1.708-0.058-3.396-0.117-5.083c0.146-9.807,0.733-19.021,1.717-27.704l-94.547,51.605
		c-0.753,17.077-2.556,32.342-6.498,45.697C196.139,360.394,189.097,375.276,179.308,386.942z"/>
</g>
</svg>
